PathFileType	4	(X/Y/Z)	C:/Users/opensim2020/Desktop/walking_exp_matlab/subject02_walking11_straight_04.trc																																																																																																																												
DataRate	CameraRate	NumFrames	NumMarkers	Units	OrigDataRate	OrigDataStartFrame	OrigNumFrames																																																																																																																								
100	100	6	42	mm	100	3340	227																																																																																																																								
Frame#	Time	LFHD			RFHD			LBHD			RBHD			C7			T10			CLAV			STRN			RBAK			LSHO			LUPA			LELB			LFRM			LWRA			LWRB			LFIN			RSHO			RUPA			RELB			RFRM			RWRA			RWRB			RFIN			LASI			RASI			LPSI			RPSI			LTHI			LKNE			LTIB			LANK			LHEE			LTOE			RTHI			RKNE			RTIB			RANK			RHEE			RTOE			*39			*40			*41		
		X1	Y1	Z1	X2	Y2	Z2	X3	Y3	Z3	X4	Y4	Z4	X5	Y5	Z5	X6	Y6	Z6	X7	Y7	Z7	X8	Y8	Z8	X9	Y9	Z9	X10	Y10	Z10	X11	Y11	Z11	X12	Y12	Z12	X13	Y13	Z13	X14	Y14	Z14	X15	Y15	Z15	X16	Y16	Z16	X17	Y17	Z17	X18	Y18	Z18	X19	Y19	Z19	X20	Y20	Z20	X21	Y21	Z21	X22	Y22	Z22	X23	Y23	Z23	X24	Y24	Z24	X25	Y25	Z25	X26	Y26	Z26	X27	Y27	Z27	X28	Y28	Z28	X29	Y29	Z29	X30	Y30	Z30	X31	Y31	Z31	X32	Y32	Z32	X33	Y33	Z33	X34	Y34	Z34	X35	Y35	Z35	X36	Y36	Z36	X37	Y37	Z37	X38	Y38	Z38	X39	Y39	Z39	X40	Y40	Z40	X41	Y41	Z41	X42	Y42	Z42
																																																																																																																															
114	1.13	98.40762	1741.9126	964.83112	84.59057	1716.98877	1106.33301	-28.25941	1664.22217	939.80182	-54.44074	1638.29639	1080.66919	-85.41133	1522.31665	1001.2522	-142.75967	1248.15161	1002.23761	53.12813	1452.3053	1002.75427	100.48372	1278.54749	1013.06561	-152.78464	1348.8031	1055.71204	5.43588	1501.02869	829.3031	47.53703	1310.25891	737.48877	98.70316	1177.02844	718.34784	179.4312	1069.58984	723.39825	282.57074	997.18445	780.76599	253.1976	972.65106	739.61108	306.95767	935.41974	745.1377	-27.46007	1483.01392	1193.39844	-87.99216	1297.38831	1267.09424	-93.98174	1151.17896	1283.0769	-80.2599	1031.97729	1306.98669	-42.05066	901.08417	1296.20789	-93.30493	902.60364	1319.94287	-63.77341	836.08392	1327.61194	82.32662	979.68152	876.677	84.91855	973.08917	1131.39844	-126.29037	1029.99072	958.91193	-129.98535	1029.09045	1074.04041	-20.2984	669.49078	845.43506	-81.58535	474.28525	886.8194	-164.48399	296.81134	897.88281	-189.5235	76.35796	949.07739	-227.04443	52.4075	1001.99939	-35.20792	33.54837	937.04565	60.20982	675.47913	1217.9386	135.25705	480.74994	1185.72754	158.54999	296.73254	1202.12341	215.61528	108.96455	1182.04858	210.72949	47.23607	1124.05664	376.61597	100.99972	1208.56555	-14.01097	1800.47156	1046.60486	-2845.89819	1034.31799	3357.27075	NaN	NaN	NaN
115	1.14	106.2692	1740.75549	965.7594	92.49232	1715.99365	1107.08838	-20.66419	1663.22803	940.83984	-46.32627	1636.85632	1081.19189	-77.75204	1521.38464	1002.4834	-135.02641	1247.08875	1003.81555	60.89706	1451.27734	1003.64679	108.25748	1277.54578	1013.815	-144.9574	1347.74719	1057.11511	12.77691	1499.8927	830.18188	53.95393	1308.95129	738.24048	104.79221	1175.46936	719.1991	185.40346	1068.42432	724.39215	289.31351	996.41949	781.75659	260.16394	971.5799	740.94122	313.84702	934.5423	746.23767	-19.37685	1482.1886	1194.99304	-79.57539	1296.34839	1268.15393	-85.56286	1150.11877	1284.27075	-71.95953	1030.9364	1308.2135	-33.96068	900.01782	1297.37488	-85.26579	901.6311	1321.23181	-55.88321	834.76849	1328.50134	89.39037	978.52637	876.85571	93.10349	971.80884	1131.71606	-118.83032	1028.9812	960.34692	-121.99483	1028.04333	1075.52551	-15.01829	669.04919	845.83649	-77.69138	474.16608	887.22473	-162.37079	297.49905	898.26538	-189.18918	77.07202	949.09076	-227.29402	53.49531	1002.21069	-35.18369	33.49375	936.91058	68.35217	674.08026	1217.78638	144.32443	479.80396	1185.07239	170.97058	296.58835	1202.12341	231.90199	109.81004	1182.69592	227.45013	47.93795	1124.88074	393.4361	104.52828	1207.76428	-6.00001	1799.53442	1047.59949	-2845.27002	1034.06909	3360.45459	NaN	NaN	NaN
116	1.15	114.52554	1739.88562	966.91089	100.50284	1714.91418	1108.04858	-13.06441	1662.27344	941.90985	-38.65294	1636.42041	1082.83997	-69.83613	1520.25842	1003.67584	-127.21896	1246.05774	1005.43292	68.75414	1450.25061	1004.53546	116.28043	1276.5647	1014.57794	-136.95514	1346.46716	1058.52075	20.14806	1498.80969	831.12158	60.39861	1307.29309	739.30316	110.80744	1173.82751	720.13287	191.80612	1066.33667	725.53577	295.60815	995.15771	782.75806	266.18097	970.12061	742.18695	320.16177	932.99463	747.47455	-11.10693	1480.89148	1196.09521	-71.1742	1295.26074	1269.61609	-77.0057	1149.02698	1285.54626	-63.49223	1029.85071	1309.51819	-25.71855	898.80365	1298.55847	-76.93307	900.5896	1322.62012	-47.672	833.86505	1330.02295	96.59709	977.43158	877.12073	101.28192	970.44611	1132.07068	-111.26451	1027.97131	961.89514	-114.01084	1027.04016	1077.01648	-9.65014	668.45868	846.30798	-73.6823	474.05783	887.65033	-160.12906	298.22272	898.7298	-188.88159	77.82687	949.06976	-226.94475	54.56686	1002.50403	-35.12882	33.44277	936.79169	77.41879	672.82037	1218.28088	153.90848	478.98923	1184.71301	182.80203	296.37674	1202.11829	246.47551	110.46938	1183.01001	242.1868	48.41331	1125.52917	408.57245	106.77479	1206.59473	2.02587	1798.51758	1048.63684	-2845.83569	1034.29419	3357.39771	NaN	NaN	NaN
117	1.16	122.13866	1738.41772	967.92218	108.52097	1713.81689	1109.03406	-5.13969	1661.25171	942.94965	-30.45859	1635.06152	1083.49377	-61.84475	1519.18213	1005.08539	-119.24527	1244.97424	1007.09186	76.69523	1449.21631	1005.54987	124.28784	1275.49622	1015.4187	-128.81044	1345.46423	1059.6554	27.57787	1497.64795	832.13818	66.59757	1305.96814	740.30859	116.6049	1172.05396	721.22791	197.72868	1064.40369	726.57025	301.33002	993.44281	783.75555	272.07187	968.22266	743.49847	325.68628	931.3175	748.59473	-2.81416	1479.74683	1197.01575	-62.60041	1294.07629	1270.48816	-68.35547	1147.974	1286.96936	-54.80266	1028.73694	1310.78442	-17.27369	897.72504	1299.89111	-68.33798	899.4975	1324.07947	-39.15395	832.74835	1331.39868	103.89144	976.35693	877.67493	109.56626	969.10931	1132.60339	-103.64133	1026.98364	963.44519	-105.94533	1026.01013	1078.58826	-4.39038	667.94324	846.82159	-69.41283	473.88324	888.10138	-157.64563	298.93552	899.13593	-188.58276	78.57578	949.12042	-226.50859	55.44699	1002.48346	-35.08749	33.385	936.67633	87.02351	671.76019	1218.79553	163.85262	478.30887	1184.70886	194.17863	296.14688	1202.1825	259.2514	110.72463	1182.89404	255.17253	48.58695	1125.42969	421.61386	107.95471	1205.65576	9.98501	1797.45618	1049.81079	-2845.95508	1034.2019	3357.34546	NaN	NaN	NaN
118	1.17	129.69949	1737.50818	968.89087	116.55104	1712.75427	1110.16504	2.66701	1660.41541	944.45575	-23.04476	1634.32666	1085.58325	-53.99351	1518.22705	1006.6535	-111.19823	1243.90845	1008.79596	84.65633	1448.19495	1006.60931	132.3326	1274.49097	1016.30804	-120.67941	1344.10815	1061.47424	35.0547	1496.50403	833.26337	72.8217	1304.41516	741.46112	122.1661	1170.19116	722.47321	203.11832	1062.58374	727.95526	306.89917	991.58759	784.76239	277.18665	965.93976	744.80981	331.26825	929.40961	749.5213	5.55492	1478.65405	1198.34607	-54.0876	1292.97192	1272.15881	-59.51863	1146.82898	1288.40308	-45.98076	1027.66772	1312.27441	-8.42278	896.65277	1301.31165	-59.46024	898.43323	1325.64014	-30.25958	831.64551	1332.91418	111.28872	975.20874	878.10437	117.98599	967.80902	1133.18884	-95.9399	1025.99097	965.05444	-97.79819	1024.99792	1080.12292	1.23989	667.39221	847.42584	-64.94634	473.64941	888.54553	-155.00087	299.60049	899.42603	-188.1729	79.37258	949.06616	-226.6779	56.72918	1002.28497	-35.01722	33.36046	936.55206	97.20984	670.95526	1219.59937	174.1909	477.88715	1184.9447	204.97342	295.75317	1202.27271	270.28641	110.50309	1182.39246	266.23196	48.26147	1124.79431	432.68842	107.9303	1204.80823	18.03318	1796.69214	1051.26855	-2845.17554	1034.2373	3360.27734	NaN	NaN	NaN
119	1.18	137.89104	1736.74365	970.25623	124.57551	1711.71887	1111.37561	10.29202	1659.25696	945.75201	-14.81032	1633.27991	1086.74426	-46.06525	1517.06152	1007.95728	-103.04907	1242.74084	1010.50354	92.74816	1447.18213	1007.76172	140.56421	1273.51221	1017.19098	-112.46302	1343.12683	1063.16089	42.58054	1495.41614	834.4743	79.25671	1302.74182	742.72272	127.57573	1168.27734	723.87653	207.84528	1060.33875	729.29565	311.89148	989.19879	785.81897	281.60504	963.47736	746.05334	335.54276	926.48987	750.89044	13.98964	1477.57874	1199.71887	-45.36838	1292.08752	1273.97937	-50.61815	1145.74854	1290.05066	-36.9055	1026.58057	1313.90076	0.72933	895.49945	1302.84082	-50.35177	897.35211	1327.27441	-21.09221	830.46448	1334.29553	118.81878	974.1734	878.63434	126.51046	966.55109	1133.88623	-88.15596	1024.98242	966.71362	-89.5603	1023.93164	1081.67285	6.97633	666.76825	848.10541	-60.28671	473.43747	889.04303	-152.25316	300.34152	899.66742	-187.77365	80.27968	948.93756	-226.10033	57.93438	1002.52448	-35.00727	33.32434	936.43323	107.67817	670.41302	1220.27563	184.76901	477.59631	1185.31934	215.17053	295.18207	1202.24939	279.7294	109.9042	1181.69849	275.32996	47.91315	1124.11804	442.03403	106.6129	1203.99841	25.94997	1795.44385	1052.39343	-2845.99805	1034.36389	3357.29932	NaN	NaN	NaN
